<svg width="64" height="64" viewBox="0 0 64 64" fill="none" xmlns="http://www.w3.org/2000/svg">
<path d="M3.5 31.2195C3.5 15.9104 15.9105 3.5 31.2195 3.5C46.5286 3.5 58.939 15.9104 58.939 31.2195V32.7805C58.939 48.0531 46.3135 60.5 30.9677 60.5C15.8979 60.5 3.5 48.2767 3.5 33.28V31.2195Z" stroke="#272343" stroke-width="7"/>
<path d="M30.9073 31.68H39.6488L54.3219 51.52L64 63.68H50.5756L42.4585 51.52L30.9073 31.68Z" fill="#272343"/>
<mask id="path-3-inside-1_2_2" fill="white">
<path d="M20.1773 13.7114L39.961 13.4157V15.6986L23.1301 31.5427H39.6657V33.8957H19.9805V31.5427L26.9687 24.9484L37.1066 15.6986H20.1773V13.7114Z"/>
</mask>
<path d="M20.1773 13.7114L20.0279 3.71254L10.1773 3.85978V13.7114H20.1773ZM39.961 13.4157H49.961V3.26512L39.8115 3.41683L39.961 13.4157ZM19.9805 33.8957H9.98047V43.8957H19.9805V33.8957ZM20.1773 15.6986H10.1773V25.6986H20.1773V15.6986ZM37.1066 15.6986L43.8467 23.0858L62.9033 5.69859H37.1066V15.6986ZM26.9687 24.9484L20.2286 17.5612L20.1666 17.6177L20.1056 17.6753L26.9687 24.9484ZM19.9805 31.5427L13.1174 24.2696L9.98047 27.2297V31.5427H19.9805ZM39.6657 33.8957V43.8957H49.6657V33.8957H39.6657ZM23.1301 31.5427L16.2757 24.2614L-2.08183 41.5427H23.1301V31.5427ZM39.6657 31.5427H49.6657V21.5427H39.6657V31.5427ZM39.961 15.6986L46.8154 22.9799L49.961 20.0187V15.6986H39.961ZM20.3268 23.7103L40.1104 23.4146L39.8115 3.41683L20.0279 3.71254L20.3268 23.7103ZM30.1773 15.6986V13.7114H10.1773V15.6986H30.1773ZM37.1066 5.69859H20.1773V25.6986H37.1066V5.69859ZM33.7088 32.3356L43.8467 23.0858L30.3665 8.31136L20.2286 17.5612L33.7088 32.3356ZM29.9805 33.8957V31.5427H9.98047V33.8957H29.9805ZM26.8436 38.8158L33.8318 32.2215L20.1056 17.6753L13.1174 24.2696L26.8436 38.8158ZM39.6657 23.8957H19.9805V43.8957H39.6657V23.8957ZM23.1301 41.5427H39.6657V21.5427H23.1301V41.5427ZM29.6657 31.5427V33.8957H49.6657V31.5427H29.6657ZM29.961 13.4157V15.6986H49.961V13.4157H29.961ZM33.1065 8.41731L16.2757 24.2614L29.9845 38.824L46.8154 22.9799L33.1065 8.41731Z" fill="#272343" mask="url(#path-3-inside-1_2_2)"/>
</svg>
